<svg version="1.0" xmlns="http://www.w3.org/2000/svg" aria-hidden="true" role="img" class="iconify iconify--logos"
 width="552.000000pt" height="563.000000pt" viewBox="0 0 552.000000 563.000000"
 preserveAspectRatio="xMidYMid meet">

<g transform="translate(0.000000,563.000000) scale(0.100000,-0.100000)"
fill="#0000ff" stroke="none">
<path d="M2335 5540 l-410 -5 -393 -251 -393 -250 -506 -625 c-278 -343 -516
-638 -530 -655 l-23 -32 -35 -892 -34 -893 358 -461 c296 -381 386 -504 515
-707 l156 -245 457 -171 458 -171 442 -66 441 -67 359 66 358 67 461 210 461
211 134 211 c84 133 270 394 503 705 l368 495 -22 855 -23 856 -391 484 c-215
266 -451 557 -523 647 l-133 164 -410 205 -410 205 -400 55 c-220 31 -405 57
-412 58 -7 1 -197 0 -423 -3z m290 -33 c-64 -23 -1370 -435 -1372 -433 -2 1
154 102 345 223 l347 222 355 -1 c269 0 348 -2 325 -11z m493 -347 c199 -190
357 -346 353 -348 -12 -4 -1425 -141 -1428 -138 -5 4 702 836 708 833 4 -1
169 -157 367 -347z m-430 323 c-22 -26 -681 -807 -683 -811 -2 -3 -751 320
-792 342 -19 9 80 43 720 247 408 130 748 237 756 238 12 1 11 -2 -1 -16z
m872 -223 c404 -128 741 -236 748 -239 11 -6 -753 -202 -786 -201 -7 0 -120
102 -250 227 -374 358 -474 456 -460 451 7 -3 344 -110 748 -238z m-300 190
l295 -40 318 -157 c175 -87 320 -161 322 -164 5 -6 -1276 399 -1284 407 -2 2
9 2 25 -1 16 -3 162 -23 324 -45z m-1298 -801 c-13 -13 -1194 -691 -1197 -687
-3 3 361 972 384 1024 9 21 23 16 415 -154 223 -97 403 -179 398 -183z m2414
324 c4 -16 71 -280 150 -588 78 -308 141 -561 139 -563 -1 -1 -256 217 -565
485 l-563 488 409 101 c225 56 412 102 416 103 4 1 11 -11 14 -26z m533 -633
c452 -559 479 -595 454 -598 -29 -3 -653 44 -658 50 -4 4 -295 1143 -295 1154
0 12 -19 35 499 -606z m-3995 99 c-102 -272 -189 -497 -192 -501 -6 -6 -572
-188 -586 -188 -3 0 211 268 476 595 265 327 483 593 485 591 2 -2 -80 -225
-183 -497z m2576 340 c0 -13 -308 -1168 -318 -1193 -7 -16 -95 64 -568 514
-307 293 -560 535 -562 539 -1 4 129 20 290 36 277 26 1134 111 1151 114 4 0
7 -4 7 -10z m606 -501 c312 -271 561 -494 553 -495 -131 -24 -1437 -223 -1445
-221 -11 3 305 1208 317 1208 4 0 262 -222 575 -492z m-1341 -357 c209 -198
381 -365 383 -369 3 -9 -1596 -477 -1604 -470 -3 3 445 1464 471 1537 3 8 72
-51 188 -162 100 -96 353 -337 562 -536z m-789 657 c-167 -551 -463 -1487
-468 -1486 -11 4 -738 817 -738 826 0 7 1198 701 1212 702 4 0 1 -19 -6 -42z
m-1258 -690 c-3 -7 -90 -309 -194 -670 -104 -362 -191 -658 -194 -658 -7 0
-216 1148 -210 1153 8 6 574 185 589 186 7 1 11 -5 9 -11z m406 -411 c202
-225 366 -411 366 -415 -1 -8 -1132 -553 -1138 -547 -7 6 392 1375 400 1373 4
-2 171 -187 372 -411z m3556 256 c-5 -16 -106 -356 -225 -758 -118 -401 -218
-738 -223 -748 -6 -15 -111 116 -514 640 -278 362 -504 660 -502 662 5 5 1414
228 1451 230 20 1 21 -2 13 -26z m412 2 c177 -14 323 -27 325 -29 4 -4 -154
-1101 -165 -1139 -6 -23 -45 61 -259 565 -139 326 -255 601 -259 611 -8 22
-30 22 358 -8z m-113 -635 c167 -391 254 -607 247 -611 -16 -9 -968 -290 -971
-287 -1 2 100 347 224 766 144 487 229 759 234 750 5 -7 125 -285 266 -618z
m-4764 -75 l97 -540 -128 -237 c-74 -136 -131 -231 -133 -221 -4 22 49 1489
55 1522 3 13 6 22 8 20 2 -2 47 -247 101 -544z m5234 -220 c11 -390 18 -711
16 -713 -2 -2 -46 86 -100 195 l-97 198 76 525 c42 289 77 530 77 535 6 41 12
-119 28 -740z m-2282 708 c-3 -5 -96 -323 -207 -708 -112 -385 -206 -703 -209
-707 -3 -3 -276 209 -605 473 -460 368 -595 481 -580 485 10 3 370 108 799
234 429 125 786 228 793 229 7 1 11 -2 9 -6z m547 -682 c268 -348 485 -635
482 -638 -6 -6 -1409 -114 -1414 -108 -3 3 295 1047 384 1343 25 83 25 83 43
60 10 -13 237 -308 505 -657z m-2204 -621 c0 -451 -2 -820 -5 -820 -8 0 -1147
1078 -1147 1086 0 9 1119 552 1140 553 9 1 12 -169 12 -819z m1189 -162 c-19
-11 -286 -165 -594 -341 -308 -175 -563 -321 -567 -324 -5 -2 -8 367 -8 821
l0 826 601 -481 601 -481 -33 -20z m2529 399 c-14 -61 -485 -1374 -490 -1369
-10 10 -480 1065 -482 1080 -1 10 145 57 479 157 264 79 484 144 488 144 5 1
7 -5 5 -12z m-4711 -674 c105 -368 189 -669 188 -671 -5 -6 -657 838 -653 847
10 26 264 491 268 491 3 0 92 -300 197 -667z m4850 457 l101 -208 -336 -451
c-185 -248 -337 -449 -339 -448 -4 5 460 1317 466 1316 3 0 52 -94 108 -209z
m-4345 -423 c257 -243 464 -444 460 -448 -13 -13 -725 -309 -730 -304 -6 6
-392 1346 -392 1363 0 8 44 -28 98 -78 53 -51 307 -291 564 -533z m2677 -272
c-275 -344 -504 -625 -508 -625 -8 0 -411 1115 -411 1136 0 9 1211 109 1363
113 l58 1 -502 -625z m780 56 c133 -299 240 -545 238 -547 -5 -6 -1489 -156
-1493 -151 -2 2 222 285 498 630 276 345 505 623 509 619 3 -4 115 -252 248
-551z m-1522 -125 c112 -313 203 -570 201 -571 -5 -4 -1598 459 -1598 465 0 9
1174 680 1184 677 6 -2 101 -259 213 -571z m-1237 -679 c112 -295 201 -539
199 -541 -5 -5 -1149 777 -1144 782 11 12 731 309 736 303 3 -3 97 -248 209
-544z m620 317 c432 -125 789 -231 793 -234 5 -4 -256 -152 -578 -330 -322
-177 -589 -320 -592 -317 -3 3 -92 237 -199 519 -107 282 -201 530 -209 551
-8 20 -11 37 -7 37 4 0 360 -102 792 -226z m1979 -360 c-669 -477 -740 -526
-744 -523 -14 15 -363 634 -359 638 5 5 1379 148 1443 150 30 1 -15 -34 -340
-265z m-2811 -253 c188 -129 340 -236 339 -237 -7 -8 -773 287 -787 303 -13
14 -221 338 -265 412 -8 14 76 -42 713 -478z m3170 457 c-8 -13 -54 -86 -103
-163 -48 -77 -94 -146 -100 -153 -7 -7 -182 -92 -390 -187 -208 -96 -373 -169
-367 -163 19 19 957 686 966 687 4 1 2 -9 -6 -21z m-1311 -416 l182 -317 -385
-3 c-212 -1 -557 -1 -767 0 l-381 3 575 317 c316 174 579 317 584 317 6 0 92
-142 192 -317z m50 -348 c-3 -4 -133 -30 -288 -59 l-282 -52 -350 53 c-192 29
-352 55 -355 58 -3 3 284 6 638 6 354 0 641 -3 637 -6z"/>
</g>
</svg>
